<?xml version="1.0" encoding="UTF-8"?>
<svg viewBox="0 0 933.33 933.33" xmlns="http://www.w3.org/2000/svg">
 <g stroke-width=".312">
  <path d="m437.02 453.8c-34.941 243.11-14.787 319.53 160.84 411.18 15.355 3.359 40.788 0.95972 33.11-20.154-199.14-114.68-188.7-141.27-175.24-393.9-43.624 768.76 702.85-132.4 10.469-30.231 711.78-66.277-46.43-703.13-22.232-23.178 11.94-684.77-733.52 34.13-25.81 24.021-675.4-13.739-31.727 748.3 18.859 32.267z" stroke="#000"/>
  <g fill-rule="evenodd">
   <path d="m430.85 356.53c-16.287-66.505-8.1434-216.48-116.04-242.27-151.33-4.0717-200.87 130.3-185.26 195.44 38.003 96.364 177.8 86.863 278.91 93.649"/>
   <path d="m449.84 344.36c18.323-95.007 22.394-222.59 130.3-248.37 151.33-4.0717 204.94 126.22 179.16 191.37-54.289 96.364-173.73 111.29-274.84 118.08"/>
   <path d="m428.15 474.24c-15.851 66.036-26.248 249.56-131.26 275.17-124.88 30.509-195.49-129.38-180.3-194.07 36.985-95.685 199.5-120.86 297.91-127.6"/>
   <path d="m462.05 484.75c16.287 66.505-12.215 244.98 95.685 270.77 151.33 4.0717 211.05-181.19 195.44-246.34-38.003-96.364-163.55-84.827-262.62-81.434"/>
  </g>
 </g>
</svg>
